Motion_kv04_j
version=1
nRows=13
nColumns=43
inDegrees=yes
endheader
time	pelvis_tilt	pelvis_list	pelvis_rotation	pelvis_tx	pelvis_ty	pelvis_tz	hip_flexion_r	hip_adduction_r	hip_rotation_r	knee_angle_r	ankle_angle_r	subtalar_angle_r	mtp_angle_r	hip_flexion_l	hip_adduction_l	hip_rotation_l	knee_angle_l	ankle_angle_l	subtalar_angle_l	mtp_angle_l	lumbar_extension	lumbar_bending	lumbar_rotation	neck_flexion	neck_lateral_bending	neck_rotation	arm_flex_r	arm_add_r	arm_rot_r	elbow_flex_r	pro_sup_r	wrist_flex_r	wrist_dev_r	hand_finger_flex_r	arm_flex_l	arm_add_l	arm_rot_l	elbow_flex_l	pro_sup_l	wrist_flex_l	wrist_dev_l	hand_finger_flex_l
      2.13250000	     -0.15458084	     22.28355031	    -92.58384981	     -0.04023636	      0.78711871	      0.17588057	     60.73540205	     -0.85296480	     -1.25081757	    -75.49993256	     20.13666057	    -17.71133757	     -2.22131304	     59.72478446	     -5.61136564	      4.55042524	    -76.04048961	     18.08111733	     -3.77955152	     15.68412078	    -32.80761310	     -0.67126475	      6.15446466	     38.88659525	     -3.28933227	     -6.49848326	    111.12622383	    -23.19873557	     10.65357622	     59.15669056	    157.16719248	     12.70486993	    -15.82044747	     70.61166434	    111.91003375	    -21.42060118	     16.99029942	     52.18135787	    148.30695781	      3.11298627	    -10.75328441	     73.13372514
      2.13500000	     -0.27056542	     22.25481478	    -92.58995770	     -0.04037589	      0.79137779	      0.18003798	     59.98836020	     -0.88011897	     -1.44696505	    -74.73538885	     19.71559622	    -17.39397814	     -1.81065741	     59.01345872	     -5.76603795	      4.47436528	    -75.29577685	     17.65068064	     -3.82188961	     15.84143835	    -32.52944694	     -0.58221203	      6.23354935	     37.86934683	     -3.28718163	     -6.49037903	    109.59127610	    -23.35426704	     10.26004291	     60.06163012	    157.32605551	     12.56845457	    -15.70500634	     70.55814288	    110.38393270	    -21.53535870	     16.47204542	     53.14082623	    148.72810885	      2.99610915	    -10.62622794	     73.12561261
      2.13750000	     -0.33312887	     22.22922532	    -92.60926793	     -0.04033808	      0.79552609	      0.18417095	     59.31454534	     -0.99306253	     -1.63265672	    -74.06341382	     19.17682343	    -17.07277142	     -1.69816272	     58.32524042	     -5.89675602	      4.32842610	    -74.57785897	     17.17335003	     -3.73362394	     15.87125300	    -32.22127717	     -0.50716898	      6.29111478	     36.60086974	     -3.26719879	     -6.44111168	    108.21881554	    -23.61760570	     10.25373201	     60.78459610	    157.30725500	     12.57218116	    -15.77093836	     70.60648941	    109.07037706	    -21.78767847	     16.47201501	     53.81725874	    148.81377345	      3.00071545	    -10.69938987	     73.17932712
      2.14000000	     -0.47365689	     22.21224585	    -92.65236059	     -0.04058832	      0.80021678	      0.18869783	     58.50089574	     -0.98166531	     -1.85273243	    -73.17795918	     18.80702591	    -16.65053186	     -1.20373079	     57.50139050	     -6.09840493	      4.27578360	    -73.66374480	     16.85158243	     -3.82630416	     16.10893411	    -31.97679908	     -0.42207794	      6.40551899	     35.86392061	     -3.27364511	     -6.47468762	    106.47272882	    -23.64673825	      9.48569587	     61.89592274	    157.47633442	     12.17203885	    -15.51555202	     70.49875540	    107.32274481	    -21.90330522	     15.70004121	     55.06230302	    149.15367462	      2.63711782	    -10.43051896	     73.12517463
      2.14250000	     -0.58661619	     22.18338897	    -92.67767499	     -0.04055931	      0.80489243	      0.19323338	     57.71727027	     -1.07005554	     -2.08974150	    -72.34670508	     18.27264312	    -16.17614693	     -0.60112446	     56.69258864	     -6.28518769	      4.13339674	    -72.78099951	     16.44627908	     -3.80075407	     16.44138272	    -31.71341009	     -0.30091771	      6.47524292	     34.82682962	     -3.30445198	     -6.44940943	    104.85854603	    -23.68363427	      9.01016714	     62.82063430	    157.78031840	     11.92028693	    -15.33949189	     70.43761601	    105.68860660	    -22.07969269	     15.18352608	     56.09528535	    149.63442077	      2.43365676	    -10.17952149	     73.09201165
      2.14500000	     -0.64363383	     22.18724748	    -92.69423668	     -0.04073117	      0.80935179	      0.19762709	     57.04195746	     -1.22043090	     -2.34294754	    -71.61975311	     17.62741535	    -15.77891662	     -0.44326164	     55.97396401	     -6.46654233	      3.95670188	    -71.95546985	     15.97609742	     -3.67528845	     16.53302495	    -31.38345549	     -0.25739047	      6.48961074	     33.57905320	     -3.32077389	     -6.39666451	    103.43601389	    -23.93917619	      9.00610483	     63.52608071	    157.79435591	     11.91345944	    -15.40947034	     70.49461465	    104.35131060	    -22.35878826	     15.22728801	     56.79818668	    149.70977491	      2.42413360	    -10.24707913	     73.13691302
      2.14750000	     -0.82068207	     22.13786462	    -92.64759894	     -0.04063966	      0.81452002	      0.20258845	     56.13470907	     -1.34795331	     -2.69444324	    -70.65320169	     16.76445420	    -15.17507266	      3.09209996	     55.02903501	     -6.65988418	      3.88406399	    -70.86644259	     15.49784833	     -3.71734099	     18.91407753	    -31.19389016	     -0.03383381	      6.47106176	     32.80409895	     -3.41226281	     -6.37718962	    101.68049741	    -23.67563345	      8.11526015	     64.63049536	    159.18040068	     11.81497075	    -15.50697275	     70.26424777	    102.39275248	    -22.47913726	     14.04825292	     58.33235102	    151.38651062	      2.56449057	     -9.80450347	     72.73789984
      2.15000000	     -0.86966300	     22.17262911	    -92.70221362	     -0.04089270	      0.81924880	      0.20719028	     55.43688501	     -1.46607460	     -2.93380327	    -69.80738141	     16.07342818	    -14.77250574	      3.15157523	     54.29885192	     -6.86025258	      3.70009392	    -69.97694846	     14.88847073	     -3.54177413	     18.94539893	    -30.84300397	     -0.02800275	      6.53938171	     31.56726364	     -3.45960029	     -6.33223377	    100.14508784	    -23.90725554	      7.92125353	     65.34485270	    158.96286286	     11.75605237	    -15.56195192	     70.29608071	    101.01127938	    -22.70527746	     14.04059245	     59.00466234	    151.13904009	      2.50212051	     -9.96848385	     72.74974220
      2.15250000	     -0.98610685	     22.18854047	    -92.79251011	     -0.04106520	      0.82450971	      0.21217885	     54.59138648	     -1.48683786	     -3.14777653	    -68.77904775	     15.51751588	    -14.19852393	      3.55667187	     53.39431384	     -7.10781971	      3.55090037	    -68.87988091	     14.45876835	     -3.43201585	     19.24625490	    -30.59199200	      0.04839768	      6.66970524	     30.83467504	     -3.49181993	     -6.40337746	     98.34229920	    -23.79964769	      7.08561881	     66.37565953	    158.98581081	     11.27152520	    -15.23400532	     70.17888496	     99.25777674	    -22.86272283	     13.43295576	     60.07016275	    151.03759745	      2.02121883	     -9.78513910	     72.59558537
      2.15500000	     -1.08940142	     22.05214210	    -92.80344170	     -0.04110798	      0.82988253	      0.21729137	     53.58282525	     -1.61786027	     -3.43455774	    -67.77836338	     14.80787271	    -13.51931118	      5.13420859	     52.36945375	     -7.32241009	      3.36297938	    -67.82769076	     13.82154069	     -3.21500176	     20.46274256	    -30.45150953	      0.16475256	      6.65888331	     29.66566952	     -3.64837446	     -6.31717258	     96.71905340	    -23.67494890	      6.67116966	     67.19198907	    159.82391536	     10.93033567	    -14.81823044	     70.06004037	     97.57550697	    -23.06775477	     13.03018831	     61.10984561	    151.80072474	      1.64308040	     -9.19424097	     72.32411399
      2.15750000	     -1.14433809	     22.15571629	    -92.80739875	     -0.04127808	      0.83484768	      0.22217237	     52.89351924	     -1.76501355	     -3.71182805	    -66.83483850	     14.03092914	    -13.09952806	      5.21748915	     51.63425520	     -7.51172726	      3.15382038	    -66.78863152	     13.17896664	     -3.01959633	     20.52267504	    -30.06611347	      0.19280968	      6.66451413	     28.59860720	     -3.62191447	     -6.33986681	     95.14907126	    -23.94445772	      6.55715968	     67.99989559	    159.64134999	     10.92983704	    -14.93716884	     70.13996410	     96.16365473	    -23.35623114	     13.05629325	     61.87534103	    151.63318894	      1.61561205	     -9.36367439	     72.38075169
      2.16000000	     -1.22238945	     22.21490857	    -92.82050605	     -0.04131240	      0.84005744	      0.22729303	     52.10313158	     -1.88503062	     -3.97657713	    -65.81675053	     13.27655777	    -12.59253834	      5.37279193	     50.80425468	     -7.70738154	      2.94833181	    -65.69139055	     12.47359206	     -2.79112706	     20.62175720	    -29.75147888	      0.25574279	      6.71028908	     27.61706184	     -3.60177185	     -6.38952505	     93.46894734	    -24.08573069	      6.16679315	     68.91581135	    159.55798068	     10.77423262	    -14.88926114	     70.17581233	     94.60478831	    -23.56112305	     12.83272450	     62.74421078	    151.55014496	      1.43970363	     -9.37616668	     72.39702697
      2.16250000	     -1.37842901	     21.94481869	    -92.81291630	     -0.04145821	      0.84618741	      0.23290191	     50.80912218	     -1.98793201	     -4.37686048	    -64.59311289	     12.64988775	    -11.79869517	      7.03822603	     49.49016819	     -7.97732104	      2.74136470	    -64.39241306	     11.77928744	     -2.53975982	     21.78836856	    -29.85006644	      0.36487445	      6.78600327	     26.89125741	     -3.69663474	     -6.46236667	     91.70929596	    -23.84306945	      5.29510340	     69.88280513	    160.48705148	     10.28662147	    -14.30702991	     70.02464245	     92.82208182	    -23.39989792	     11.89797865	     63.82053622	    152.62458143	      0.93801419	     -8.66310521	     72.18307297
